<svg width="582" height="817" viewBox="0 0 582 817" fill="none" xmlns="http://www.w3.org/2000/svg">
<rect x="30" y="43" width="226" height="337" fill="#FFECBB"/>
<rect x="335" y="465" width="247" height="351" fill="#84CEF9"/>
<rect x="156" y="299" width="57" height="81" fill="#84CEF9"/>
<rect x="156" y="299" width="57" height="81" fill="#84CEF9"/>
<rect x="334" width="217" height="380" fill="#E7C1F9"/>
<rect y="527" width="260" height="289" fill="#84F9C1"/>
<rect x="55" y="72" width="59" height="65" fill="#84F9C1"/>
<rect x="162" y="72" width="59" height="65" fill="#84F9C1"/>
<rect x="55" y="172" width="59" height="65" fill="#84F9C1"/>
<rect x="162" y="172" width="59" height="65" fill="#84F9C1"/>
<rect x="162" y="172" width="59" height="65" fill="#84F9C1"/>
<rect x="55" y="272" width="59" height="65" fill="#84F9C1"/>
<rect x="426" y="282" width="59" height="98" fill="#84F9C1"/>
<rect x="357" y="43" width="46" height="47" fill="#84CEF9"/>
<rect x="448" y="43" width="46" height="47" fill="#84CEF9"/>
<rect x="374" y="114" width="46" height="47" fill="#84CEF9"/>
<rect x="465" y="114" width="46" height="47" fill="#84CEF9"/>
<rect x="365" y="190" width="46" height="47" fill="#84CEF9"/>
<rect x="456" y="190" width="46" height="47" fill="#84CEF9"/>
<rect x="101" y="723" width="63" height="94" fill="#FFECBB"/>
<rect x="30" y="571" width="55" height="50" fill="#E7C1F9"/>
<rect x="101" y="571" width="55" height="50" fill="#E7C1F9"/>
<rect x="172" y="571" width="55" height="50" fill="#E7C1F9"/>
<rect x="447" y="689" width="55" height="127" fill="#E7C1F9"/>
<rect x="30" y="647" width="55" height="50" fill="#E7C1F9"/>
<rect x="101" y="647" width="55" height="50" fill="#E7C1F9"/>
<rect x="172" y="647" width="55" height="50" fill="#E7C1F9"/>
<rect x="358" y="498" width="62" height="66" fill="#FFECBB"/>
<rect x="358" y="641" width="62" height="66" fill="#FFECBB"/>
<rect x="475" y="498" width="82" height="108" fill="#FFECBB"/>
</svg>
